<svg width="294" height="368" viewBox="0 0 294 368" fill="none" xmlns="http://www.w3.org/2000/svg">
<path d="M10.368 270H2.928V236.4H11.616L21.552 260.352L31.536 236.4H40.176V270H32.736V249.552L24.528 270H18.576L10.368 249.552V270ZM71.925 242.592H54.933V250.032H67.653V255.936H54.933V263.808H71.925V270H47.493V236.4H71.925V242.592ZM83.9887 260.112C84.1807 261.04 84.5327 261.808 85.0447 262.416C85.5567 263.024 86.2127 263.488 87.0127 263.808C87.8127 264.096 88.7247 264.24 89.7487 264.24C91.4447 264.24 92.7247 263.872 93.5887 263.136C94.4527 262.4 94.8847 261.488 94.8847 260.4C94.8847 259.504 94.6127 258.784 94.0687 258.24C93.5567 257.664 92.8047 257.184 91.8127 256.8C90.8527 256.416 89.7487 256.032 88.5007 255.648C87.2207 255.296 85.9407 254.896 84.6607 254.448C83.3807 253.968 82.1967 253.392 81.1087 252.72C80.0527 252.016 79.2047 251.104 78.5647 249.984C77.9247 248.864 77.6207 247.472 77.6527 245.808C77.6527 243.728 78.1647 241.968 79.1887 240.528C80.2447 239.056 81.6687 237.952 83.4607 237.216C85.2847 236.448 87.3807 236.064 89.7487 236.064C91.8287 236.064 93.6847 236.368 95.3167 236.976C96.9487 237.552 98.3087 238.432 99.3967 239.616C100.485 240.768 101.253 242.192 101.701 243.888L94.8847 245.376C94.7567 244.672 94.4367 244.08 93.9247 243.6C93.4447 243.088 92.8527 242.72 92.1487 242.496C91.4447 242.24 90.7247 242.096 89.9887 242.064C89.0927 242.064 88.2767 242.208 87.5407 242.496C86.8367 242.784 86.2607 243.2 85.8127 243.744C85.3967 244.288 85.1887 244.912 85.1887 245.616C85.1887 246.416 85.4287 247.072 85.9087 247.584C86.4207 248.064 87.1087 248.48 87.9727 248.832C88.8367 249.184 89.7807 249.536 90.8047 249.888C92.1167 250.304 93.4447 250.752 94.7887 251.232C96.1647 251.712 97.4287 252.336 98.5807 253.104C99.7327 253.84 100.661 254.8 101.365 255.984C102.069 257.136 102.421 258.576 102.421 260.304C102.421 262.192 101.973 263.888 101.077 265.392C100.181 266.896 98.8207 268.096 96.9967 268.992C95.2047 269.888 92.9327 270.336 90.1807 270.336C87.8767 270.336 85.8127 270 83.9887 269.328C82.1647 268.656 80.6607 267.68 79.4767 266.4C78.2927 265.12 77.5087 263.568 77.1247 261.744L83.9887 260.112ZM108.545 236.4H115.985V249.84H118.145L129.233 236.4H138.113L124.673 252.912L138.545 270H129.233L118.145 256.08H115.985V270H108.545V236.4ZM141.92 236.4H170.144V242.592H159.728V270H152.336V242.592H141.92V236.4ZM191.811 270.336C189.411 270.336 187.171 269.92 185.091 269.088C183.011 268.256 181.187 267.088 179.619 265.584C178.051 264.048 176.819 262.24 175.923 260.16C175.027 258.048 174.579 255.728 174.579 253.2C174.579 250.672 175.027 248.368 175.923 246.288C176.819 244.176 178.051 242.368 179.619 240.864C181.187 239.328 183.011 238.144 185.091 237.312C187.171 236.48 189.411 236.064 191.811 236.064C194.179 236.064 196.403 236.48 198.483 237.312C200.595 238.144 202.419 239.328 203.955 240.864C205.523 242.368 206.755 244.176 207.651 246.288C208.547 248.368 208.995 250.672 208.995 253.2C208.995 255.728 208.547 258.048 207.651 260.16C206.755 262.24 205.523 264.048 203.955 265.584C202.387 267.088 200.563 268.256 198.483 269.088C196.403 269.92 194.179 270.336 191.811 270.336ZM191.811 264C193.699 264 195.363 263.552 196.803 262.656C198.275 261.728 199.411 260.448 200.211 258.816C201.043 257.184 201.459 255.312 201.459 253.2C201.459 251.056 201.043 249.184 200.211 247.584C199.411 245.952 198.275 244.688 196.803 243.792C195.363 242.864 193.699 242.4 191.811 242.4C189.859 242.4 188.163 242.864 186.723 243.792C185.283 244.688 184.147 245.952 183.315 247.584C182.515 249.184 182.115 251.056 182.115 253.2C182.115 255.312 182.515 257.184 183.315 258.816C184.147 260.448 185.283 261.728 186.723 262.656C188.163 263.552 189.859 264 191.811 264ZM222.258 270H214.818V236.4H223.506L233.442 260.352L243.426 236.4H252.066V270H244.626V249.552L236.418 270H230.466L222.258 249.552V270ZM275.175 270.336C272.775 270.336 270.535 269.92 268.455 269.088C266.375 268.256 264.551 267.088 262.983 265.584C261.415 264.048 260.183 262.24 259.287 260.16C258.391 258.048 257.943 255.728 257.943 253.2C257.943 250.672 258.391 248.368 259.287 246.288C260.183 244.176 261.415 242.368 262.983 240.864C264.551 239.328 266.375 238.144 268.455 237.312C270.535 236.48 272.775 236.064 275.175 236.064C277.543 236.064 279.767 236.48 281.847 237.312C283.959 238.144 285.783 239.328 287.319 240.864C288.887 242.368 290.119 244.176 291.015 246.288C291.911 248.368 292.359 250.672 292.359 253.2C292.359 255.728 291.911 258.048 291.015 260.16C290.119 262.24 288.887 264.048 287.319 265.584C285.751 267.088 283.927 268.256 281.847 269.088C279.767 269.92 277.543 270.336 275.175 270.336ZM275.175 264C277.063 264 278.727 263.552 280.167 262.656C281.639 261.728 282.775 260.448 283.575 258.816C284.407 257.184 284.823 255.312 284.823 253.2C284.823 251.056 284.407 249.184 283.575 247.584C282.775 245.952 281.639 244.688 280.167 243.792C278.727 242.864 277.063 242.4 275.175 242.4C273.223 242.4 271.527 242.864 270.087 243.792C268.647 244.688 267.511 245.952 266.679 247.584C265.879 249.184 265.479 251.056 265.479 253.2C265.479 255.312 265.879 257.184 266.679 258.816C267.511 260.448 268.647 261.728 270.087 262.656C271.527 263.552 273.223 264 275.175 264Z" fill="white"/>
<path d="M55.2765 290.8V312.436H66.5805V316H50.9925V290.8H55.2765ZM83.4375 316.252C81.6615 316.252 79.9935 315.94 78.4335 315.316C76.8735 314.692 75.5055 313.816 74.3295 312.688C73.1775 311.536 72.2655 310.18 71.5935 308.62C70.9455 307.036 70.6215 305.296 70.6215 303.4C70.6215 301.528 70.9455 299.812 71.5935 298.252C72.2655 296.668 73.1775 295.3 74.3295 294.148C75.5055 292.996 76.8735 292.108 78.4335 291.484C79.9935 290.86 81.6615 290.548 83.4375 290.548C85.2135 290.548 86.8695 290.86 88.4055 291.484C89.9655 292.108 91.3215 292.996 92.4735 294.148C93.6495 295.3 94.5615 296.668 95.2095 298.252C95.8815 299.812 96.2175 301.528 96.2175 303.4C96.2175 305.296 95.8815 307.036 95.2095 308.62C94.5615 310.18 93.6495 311.536 92.4735 312.688C91.3215 313.816 89.9655 314.692 88.4055 315.316C86.8695 315.94 85.2135 316.252 83.4375 316.252ZM83.4375 312.616C85.0695 312.616 86.5215 312.244 87.7935 311.5C89.0655 310.732 90.0615 309.664 90.7815 308.296C91.5015 306.904 91.8615 305.272 91.8615 303.4C91.8615 301.504 91.5015 299.872 90.7815 298.504C90.0615 297.136 89.0655 296.08 87.7935 295.336C86.5215 294.568 85.0695 294.184 83.4375 294.184C81.8055 294.184 80.3535 294.568 79.0815 295.336C77.8095 296.08 76.8015 297.136 76.0575 298.504C75.3375 299.872 74.9775 301.504 74.9775 303.4C74.9775 305.272 75.3375 306.904 76.0575 308.296C76.8015 309.664 77.8095 310.732 79.0815 311.5C80.3535 312.244 81.8055 312.616 83.4375 312.616ZM120.992 298.648C120.104 297.064 119.012 295.924 117.716 295.228C116.42 294.532 115.04 294.184 113.576 294.184C111.992 294.184 110.54 294.58 109.22 295.372C107.924 296.14 106.892 297.22 106.124 298.612C105.38 299.98 105.008 301.576 105.008 303.4C105.008 305.224 105.38 306.832 106.124 308.224C106.868 309.592 107.876 310.672 109.148 311.464C110.444 312.232 111.884 312.616 113.468 312.616C114.596 312.616 115.652 312.424 116.636 312.04C117.62 311.656 118.484 311.128 119.228 310.456C119.972 309.76 120.56 308.968 120.992 308.08V305.56H113.756V302.068H125.276V308.332C124.7 309.82 123.836 311.164 122.684 312.364C121.556 313.564 120.2 314.512 118.616 315.208C117.056 315.904 115.328 316.252 113.432 316.252C111.656 316.252 109.988 315.94 108.428 315.316C106.892 314.692 105.536 313.816 104.36 312.688C103.208 311.536 102.296 310.18 101.624 308.62C100.976 307.036 100.652 305.296 100.652 303.4C100.652 301.528 100.976 299.812 101.624 298.252C102.296 296.668 103.208 295.3 104.36 294.148C105.536 292.996 106.892 292.108 108.428 291.484C109.988 290.86 111.656 290.548 113.432 290.548C115.04 290.548 116.588 290.812 118.076 291.34C119.564 291.844 120.896 292.6 122.072 293.608C123.248 294.616 124.148 295.852 124.772 297.316L120.992 298.648ZM131.31 290.8H135.594V316H131.31V290.8ZM145.553 309.088C145.697 309.76 145.973 310.372 146.381 310.924C146.813 311.452 147.377 311.872 148.073 312.184C148.793 312.496 149.645 312.652 150.629 312.652C152.141 312.652 153.269 312.304 154.013 311.608C154.757 310.888 155.129 310.048 155.129 309.088C155.129 308.296 154.889 307.636 154.409 307.108C153.953 306.58 153.305 306.136 152.465 305.776C151.625 305.392 150.665 305.032 149.585 304.696C148.601 304.408 147.653 304.108 146.741 303.796C145.829 303.46 145.001 303.052 144.257 302.572C143.537 302.068 142.961 301.432 142.529 300.664C142.097 299.872 141.893 298.888 141.917 297.712C141.917 296.176 142.277 294.88 142.997 293.824C143.717 292.744 144.725 291.928 146.021 291.376C147.317 290.824 148.805 290.548 150.485 290.548C151.901 290.548 153.173 290.752 154.301 291.16C155.453 291.544 156.425 292.12 157.217 292.888C158.009 293.632 158.597 294.556 158.981 295.66L155.057 296.956C154.913 296.428 154.625 295.96 154.193 295.552C153.761 295.12 153.221 294.784 152.573 294.544C151.949 294.304 151.265 294.172 150.521 294.148C149.705 294.124 148.973 294.244 148.325 294.508C147.701 294.772 147.197 295.156 146.813 295.66C146.429 296.14 146.237 296.704 146.237 297.352C146.237 298.096 146.453 298.684 146.885 299.116C147.317 299.524 147.881 299.872 148.577 300.16C149.297 300.424 150.089 300.7 150.953 300.988C151.961 301.276 152.957 301.612 153.941 301.996C154.949 302.356 155.861 302.824 156.677 303.4C157.517 303.952 158.189 304.66 158.693 305.524C159.197 306.388 159.449 307.468 159.449 308.764C159.449 310.156 159.125 311.416 158.477 312.544C157.853 313.672 156.893 314.572 155.597 315.244C154.301 315.916 152.693 316.252 150.773 316.252C149.213 316.252 147.785 316.024 146.489 315.568C145.217 315.088 144.149 314.416 143.285 313.552C142.445 312.664 141.893 311.62 141.629 310.42L145.553 309.088ZM164.165 290.8H183.965V294.364H176.225V316H171.941V294.364H164.165V290.8ZM189.691 290.8H193.975V316H189.691V290.8ZM199.757 303.4C199.757 301.504 200.081 299.776 200.729 298.216C201.401 296.632 202.313 295.276 203.465 294.148C204.641 292.996 205.997 292.108 207.533 291.484C209.093 290.86 210.761 290.548 212.537 290.548C215.009 290.548 217.241 291.136 219.233 292.312C221.249 293.488 222.785 295.18 223.841 297.388L220.349 298.576C219.797 297.52 219.089 296.668 218.225 296.02C217.361 295.372 216.449 294.904 215.489 294.616C214.529 294.328 213.581 294.184 212.645 294.184C211.013 294.184 209.549 294.568 208.253 295.336C206.957 296.08 205.937 297.148 205.193 298.54C204.473 299.908 204.113 301.528 204.113 303.4C204.113 305.248 204.473 306.868 205.193 308.26C205.937 309.628 206.957 310.696 208.253 311.464C209.549 312.232 211.013 312.616 212.645 312.616C213.605 312.616 214.577 312.472 215.561 312.184C216.569 311.872 217.517 311.344 218.405 310.6C219.317 309.832 220.073 308.812 220.673 307.54L224.129 308.656C223.025 311.248 221.453 313.168 219.413 314.416C217.373 315.64 215.081 316.252 212.537 316.252C210.761 316.252 209.093 315.94 207.533 315.316C205.997 314.692 204.641 313.804 203.465 312.652C202.313 311.5 201.401 310.144 200.729 308.584C200.081 307 199.757 305.272 199.757 303.4ZM233.155 309.088C233.299 309.76 233.575 310.372 233.983 310.924C234.415 311.452 234.979 311.872 235.675 312.184C236.395 312.496 237.247 312.652 238.231 312.652C239.743 312.652 240.871 312.304 241.615 311.608C242.359 310.888 242.731 310.048 242.731 309.088C242.731 308.296 242.491 307.636 242.011 307.108C241.555 306.58 240.907 306.136 240.067 305.776C239.227 305.392 238.267 305.032 237.187 304.696C236.203 304.408 235.255 304.108 234.343 303.796C233.431 303.46 232.603 303.052 231.859 302.572C231.139 302.068 230.563 301.432 230.131 300.664C229.699 299.872 229.495 298.888 229.519 297.712C229.519 296.176 229.879 294.88 230.599 293.824C231.319 292.744 232.327 291.928 233.623 291.376C234.919 290.824 236.407 290.548 238.087 290.548C239.503 290.548 240.775 290.752 241.903 291.16C243.055 291.544 244.027 292.12 244.819 292.888C245.611 293.632 246.199 294.556 246.583 295.66L242.659 296.956C242.515 296.428 242.227 295.96 241.795 295.552C241.363 295.12 240.823 294.784 240.175 294.544C239.551 294.304 238.867 294.172 238.123 294.148C237.307 294.124 236.575 294.244 235.927 294.508C235.303 294.772 234.799 295.156 234.415 295.66C234.031 296.14 233.839 296.704 233.839 297.352C233.839 298.096 234.055 298.684 234.487 299.116C234.919 299.524 235.483 299.872 236.179 300.16C236.899 300.424 237.691 300.7 238.555 300.988C239.563 301.276 240.559 301.612 241.543 301.996C242.551 302.356 243.463 302.824 244.279 303.4C245.119 303.952 245.791 304.66 246.295 305.524C246.799 306.388 247.051 307.468 247.051 308.764C247.051 310.156 246.727 311.416 246.079 312.544C245.455 313.672 244.495 314.572 243.199 315.244C241.903 315.916 240.295 316.252 238.375 316.252C236.815 316.252 235.387 316.024 234.091 315.568C232.819 315.088 231.751 314.416 230.887 313.552C230.047 312.664 229.495 311.62 229.231 310.42L233.155 309.088ZM79.7171 333.8V355.436H91.0211V359H75.4331V333.8H79.7171ZM96.3581 333.8H100.642V359H96.3581V333.8ZM112.005 359H107.721V333.8H112.509L121.005 353.384L129.501 333.8H134.253V359H130.005V341.972L122.625 359H119.385L112.005 341.972V359ZM141.337 333.8H145.621V359H141.337V333.8ZM151.403 333.8H171.203V337.364H163.463V359H159.179V337.364H151.403V333.8ZM194.137 337.364H181.213V344.456H190.897V348.02H181.213V355.436H194.137V359H176.929V333.8H194.137V337.364ZM209.526 333.8C212.238 333.8 214.578 334.316 216.546 335.348C218.538 336.38 220.074 337.856 221.154 339.776C222.258 341.672 222.81 343.916 222.81 346.508C222.81 349.076 222.258 351.296 221.154 353.168C220.074 355.04 218.538 356.48 216.546 357.488C214.578 358.496 212.238 359 209.526 359H200.526V333.8H209.526ZM209.526 355.436C212.406 355.436 214.614 354.656 216.15 353.096C217.71 351.512 218.49 349.316 218.49 346.508C218.49 343.676 217.71 341.444 216.15 339.812C214.614 338.18 212.406 337.364 209.526 337.364H204.81V355.436H209.526Z" fill="white"/>
<path d="M233.008 0.296691C234.611 0.560309 236.091 1.27001 237.253 2.33237C238.415 3.39473 239.205 4.75997 239.518 6.24838L246.432 38.8612L281.389 45.4963C282.983 45.7987 284.442 46.5434 285.573 47.6323C286.705 48.7213 287.456 50.1038 287.729 51.5979C288.002 53.092 287.783 54.6279 287.102 56.0038C286.42 57.3796 285.308 58.5311 283.911 59.3067L243.548 81.719C242.294 82.4137 240.861 82.7781 239.402 82.7734L210.55 82.6896L172.567 117.876C171.043 119.239 169.004 119.99 166.891 119.967C164.778 119.944 162.759 119.148 161.269 117.751C159.779 116.355 158.937 114.469 158.925 112.499C158.912 110.53 159.73 108.636 161.203 107.224L199.186 72.0377L199.267 45.1526L199.35 44.1466C199.497 43.1384 199.862 42.1686 200.423 41.2959L224.713 3.81725L225.425 2.88809C226.335 1.87785 227.516 1.10918 228.847 0.659521C230.179 0.209859 231.614 0.0950745 233.008 0.32673L233.008 0.296691Z" fill="white"/>
<path d="M229.167 1.60734C230.341 1.21061 231.61 1.10852 232.844 1.31333L233.504 1.42267C234.665 1.72148 235.724 2.28868 236.579 3.07028C237.592 3.99676 238.271 5.1788 238.54 6.45489L238.54 6.45587L245.454 39.0689L245.592 39.7197L246.246 39.8436L281.203 46.4784C282.612 46.7458 283.893 47.4037 284.88 48.3533C285.865 49.3022 286.512 50.4974 286.746 51.7777C286.979 53.0575 286.793 54.3753 286.206 55.5603C285.618 56.7465 284.653 57.7508 283.426 58.4322L243.063 80.8443C241.961 81.4546 240.697 81.7773 239.406 81.7732L210.16 81.6882L209.871 81.9559L171.9 117.13C170.569 118.321 168.775 118.988 166.902 118.967C165.03 118.946 163.254 118.241 161.953 117.022C160.655 115.805 159.935 114.176 159.925 112.493C159.914 110.809 160.612 109.174 161.894 107.945L199.866 72.7716L200.185 72.4756L200.267 45.1984L200.343 44.2679C200.471 43.4118 200.782 42.5843 201.263 41.836L225.535 4.38781L226.19 3.53229C226.979 2.66618 228.004 2.00022 229.167 1.60734Z" stroke="#1E1E1E" stroke-opacity="0.3" stroke-width="2"/>
<path d="M155.379 43.9165C176.96 43.9197 197.656 52.3693 212.914 67.4064C228.173 82.4435 236.743 102.836 236.739 124.099C236.736 145.361 228.16 165.752 212.897 180.784C197.634 195.817 176.936 204.26 155.354 204.257C133.773 204.252 113.077 195.801 97.8204 180.763C82.5636 165.725 73.9951 145.331 74 124.069C74.0049 102.806 82.5828 82.4164 97.8466 67.3849C113.11 52.3535 133.797 43.9117 155.379 43.9165ZM155.391 54.848C136.753 54.848 118.877 62.1428 105.698 75.1275C92.5181 88.1123 85.1139 105.723 85.1139 124.087C85.1139 142.45 92.5181 160.061 105.698 173.046C118.877 186.031 136.753 193.326 155.391 193.326C174.028 193.326 191.902 186.031 205.08 173.048C218.259 160.064 225.662 142.454 225.662 124.093C225.662 105.731 218.259 88.1216 205.08 75.1379C191.902 62.1543 174.028 54.8601 155.391 54.8601M155.391 70.3464C169.859 70.3464 183.735 76.0089 193.966 86.0883C204.196 96.1678 209.944 109.838 209.944 124.093C209.944 138.347 204.196 152.018 193.966 162.097C183.735 172.177 169.859 177.839 155.391 177.839C140.923 177.839 127.047 172.177 116.817 162.097C106.586 152.018 100.839 138.347 100.839 124.093C100.839 109.838 106.586 96.1678 116.817 86.0883C127.047 76.0089 140.923 70.3464 155.391 70.3464ZM155.391 80.6706C149.541 80.575 143.729 81.6278 138.296 83.7678C132.862 85.9077 127.916 89.0919 123.744 93.1348C119.573 97.1776 116.26 101.998 113.999 107.315C111.738 112.633 110.574 118.34 110.574 124.105C110.575 129.87 111.741 135.577 114.003 140.894C116.266 146.21 119.58 151.03 123.753 155.072C127.926 159.113 132.873 162.296 138.307 164.435C143.741 166.573 149.553 167.624 155.404 167.527C167.097 167.524 178.311 162.944 186.578 154.795C194.844 146.646 199.487 135.596 199.483 124.075C199.48 112.553 194.831 101.505 186.56 93.3611C178.289 85.2167 167.073 80.643 155.379 80.6463M155.379 96.7398C159.022 96.7406 162.628 97.4483 165.994 98.8224C169.359 100.197 172.416 102.21 174.991 104.749C177.566 107.287 179.609 110.3 181.002 113.616C182.395 116.932 183.112 120.486 183.111 124.075C183.111 127.663 182.392 131.217 180.997 134.532C179.603 137.848 177.559 140.86 174.983 143.397C172.406 145.934 169.348 147.947 165.982 149.319C162.616 150.692 159.009 151.398 155.367 151.397C148.01 151.397 140.954 148.518 135.752 143.393C130.55 138.268 127.628 131.317 127.628 124.069C127.628 116.821 130.55 109.869 135.752 104.744C140.954 99.6191 148.022 96.7398 155.379 96.7398ZM155.367 106.457C150.626 106.457 146.079 108.312 142.726 111.615C139.374 114.918 137.491 119.398 137.491 124.069C137.491 128.739 139.374 133.219 142.726 136.522C146.079 139.825 150.626 141.68 155.367 141.68C160.108 141.68 164.654 139.825 168.007 136.522C171.359 133.219 173.243 128.739 173.243 124.069C173.243 119.398 171.359 114.918 168.007 111.615C164.654 108.312 160.108 106.457 155.367 106.457Z" fill="white"/>
</svg>
